<svg width="17" height="16" viewBox="0 0 17 16" fill="none" xmlns="http://www.w3.org/2000/svg">
<rect x="8.29028" width="1.93548" height="1.93548" fill="black"/>
<rect x="6.35474" width="1.93548" height="1.93548" fill="black"/>
<rect x="4.41919" width="1.93548" height="1.93548" fill="black"/>
<rect x="0.54834" y="3.87097" width="1.93548" height="1.93548" fill="black"/>
<rect x="2.48389" y="1.93549" width="1.93548" height="1.93548" fill="black"/>
<rect x="0.54834" y="7.74194" width="1.93548" height="1.93548" fill="black"/>
<rect x="0.54834" y="9.67743" width="1.93548" height="1.93548" fill="black"/>
<rect x="2.48389" y="11.6129" width="1.93548" height="1.93548" fill="black"/>
<rect x="4.41919" y="13.5484" width="1.93548" height="1.93548" fill="black"/>
<rect x="10.2258" y="13.5484" width="1.93548" height="1.93548" fill="black"/>
<rect x="6.35474" y="13.5484" width="1.93548" height="1.93548" fill="black"/>
<rect x="8.29028" y="1.93549" width="3.87097" height="13.5484" fill="black"/>
<rect x="0.54834" y="5.80646" width="1.93548" height="1.93548" fill="black"/>
<rect x="12.1611" y="1.93549" width="1.93548" height="9.67742" fill="black"/>
<rect x="12.1611" y="11.6129" width="1.93548" height="1.93548" fill="black"/>
<rect x="14.0967" y="7.74194" width="1.93548" height="1.93548" fill="black"/>
<rect x="14.0967" y="5.80646" width="1.93548" height="1.93548" fill="black"/>
<rect x="14.0967" y="3.87097" width="1.93548" height="1.93548" fill="black"/>
<rect x="10.2258" width="1.93548" height="1.93548" fill="black"/>
<rect x="14.0967" y="9.67743" width="1.93548" height="1.93548" fill="black"/>
</svg>
